<mxfile>
    <diagram name="Page-1" id="e7e014a7-5840-1c2e-5031-d8a46d1fe8dd">
        <mxGraphModel dx="600" dy="575" grid="0" gridSize="10" guides="1" tooltips="1" connect="1" arrows="1" fold="1" page="1" pageScale="1" pageWidth="1169" pageHeight="826" background="none" math="0" shadow="0">
            <root>
                <mxCell id="0"/>
                <mxCell id="1" parent="0"/>
                <mxCell id="jg-bdJbGxONM6aFM8Xrk-51" value="&lt;span&gt;INITIAL&lt;/span&gt;" style="rounded=1;whiteSpace=wrap;html=1;" parent="1" vertex="1">
                    <mxGeometry x="365" y="220" width="150" height="30" as="geometry"/>
                </mxCell>
                <mxCell id="jg-bdJbGxONM6aFM8Xrk-62" value="FINAL" style="rounded=1;whiteSpace=wrap;html=1;" parent="1" vertex="1">
                    <mxGeometry x="370" y="520" width="140" height="30" as="geometry"/>
                </mxCell>
                <mxCell id="39" style="edgeStyle=orthogonalEdgeStyle;rounded=0;orthogonalLoop=1;jettySize=auto;html=1;entryX=1;entryY=0.5;entryDx=0;entryDy=0;" parent="1" source="28" target="37" edge="1">
                    <mxGeometry relative="1" as="geometry"/>
                </mxCell>
                <mxCell id="28" value="" style="rhombus;whiteSpace=wrap;html=1;" parent="1" vertex="1">
                    <mxGeometry x="420" y="400" width="40" height="40" as="geometry"/>
                </mxCell>
                <mxCell id="56" style="edgeStyle=orthogonalEdgeStyle;rounded=0;orthogonalLoop=1;jettySize=auto;html=1;entryX=0.5;entryY=0;entryDx=0;entryDy=0;exitX=0.5;exitY=1;exitDx=0;exitDy=0;" parent="1" source="jg-bdJbGxONM6aFM8Xrk-51" target="28" edge="1">
                    <mxGeometry relative="1" as="geometry">
                        <mxPoint x="440" y="350" as="sourcePoint"/>
                    </mxGeometry>
                </mxCell>
                <mxCell id="37" value="FINAL" style="rounded=1;whiteSpace=wrap;html=1;" parent="1" vertex="1">
                    <mxGeometry x="110" y="405" width="100" height="30" as="geometry"/>
                </mxCell>
                <mxCell id="38" value="OK - borrow was rejected by system" style="text;html=1;strokeColor=none;fillColor=none;align=center;verticalAlign=middle;whiteSpace=wrap;rounded=0;fontColor=#FFFFFF;" parent="1" vertex="1">
                    <mxGeometry x="365" y="477" width="190" height="20" as="geometry"/>
                </mxCell>
                <mxCell id="49" value="" style="edgeStyle=orthogonalEdgeStyle;rounded=0;orthogonalLoop=1;jettySize=auto;html=1;exitX=0.5;exitY=1;exitDx=0;exitDy=0;" parent="1" source="28" target="jg-bdJbGxONM6aFM8Xrk-62" edge="1">
                    <mxGeometry relative="1" as="geometry">
                        <mxPoint x="440" y="620" as="sourcePoint"/>
                    </mxGeometry>
                </mxCell>
                <mxCell id="57" value="borrow's request was validated by system" style="text;html=1;strokeColor=none;fillColor=none;align=center;verticalAlign=middle;whiteSpace=wrap;rounded=0;fontColor=#FFFFFF;" parent="1" vertex="1">
                    <mxGeometry x="345" y="311" width="190" height="20" as="geometry"/>
                </mxCell>
                <mxCell id="58" value="KO - the system can't do reject the borrow" style="text;html=1;strokeColor=none;fillColor=none;align=center;verticalAlign=middle;whiteSpace=wrap;rounded=0;fontColor=#FFFFFF;" parent="1" vertex="1">
                    <mxGeometry x="230" y="424" width="190" height="20" as="geometry"/>
                </mxCell>
            </root>
        </mxGraphModel>
    </diagram>
</mxfile>